<svg width="58" height="58" viewBox="0 0 58 58" fill="none" xmlns="http://www.w3.org/2000/svg">
    <path d="M12.8086 9.41504H45.1914C47.0655 9.41504 48.5849 10.9343 48.5849 12.8086V45.1914C48.5849 47.0655 47.0656 48.5849 45.1914 48.5849H12.8086C10.9345 48.5849 9.41507 47.0656 9.41507 45.1914V12.8086C9.41507 10.9345 10.9344 9.41504 12.8086 9.41504Z" fill="#1A1A1A"/>
    <path d="M41.6269 9.41504H12.8086C10.9345 9.41504 9.41507 10.9343 9.41507 12.8086V45.1914C9.41507 47.0655 10.9344 48.5849 12.8086 48.5849H17.9294L41.6269 9.41504Z" fill="#4D4D4D"/>
    <path d="M16.3704 13.3392C15.6185 13.3392 15.0089 12.7296 15.0089 11.9777V1.3615C15.0089 0.609545 15.6185 0 16.3704 0C17.1224 0 17.7319 0.609545 17.7319 1.3615V11.9777C17.7319 12.7296 17.1224 13.3392 16.3704 13.3392Z" fill="#C4C2B7"/>
    <path d="M22.6852 13.3392C21.9332 13.3392 21.3237 12.7296 21.3237 11.9777V1.3615C21.3237 0.609545 21.9332 0 22.6852 0C23.4372 0 24.0467 0.609545 24.0467 1.3615V11.9777C24.0467 12.7296 23.4372 13.3392 22.6852 13.3392Z" fill="#C4C2B7"/>
    <path d="M29 13.3392C28.248 13.3392 27.6385 12.7296 27.6385 11.9777V1.3615C27.6385 0.609545 28.248 0 29 0C29.752 0 30.3615 0.609545 30.3615 1.3615V11.9777C30.3615 12.7296 29.752 13.3392 29 13.3392Z" fill="#C4C2B7"/>
    <path d="M35.3146 13.3392C34.5627 13.3392 33.9531 12.7296 33.9531 11.9777V1.3615C33.9531 0.609545 34.5627 0 35.3146 0C36.0666 0 36.6761 0.609545 36.6761 1.3615V11.9777C36.6761 12.7296 36.0666 13.3392 35.3146 13.3392Z" fill="#C4C2B7"/>
    <path d="M41.6294 13.3392C40.8775 13.3392 40.2679 12.7296 40.2679 11.9777V1.3615C40.2679 0.609545 40.8775 0 41.6294 0C42.3814 0 42.9909 0.609545 42.9909 1.3615V11.9777C42.9909 12.7296 42.3814 13.3392 41.6294 13.3392Z" fill="#C4C2B7"/>
    <path d="M16.3704 58C15.6185 58 15.0089 57.3905 15.0089 56.6385V46.0225C15.0089 45.2705 15.6185 44.6609 16.3704 44.6609C17.1224 44.6609 17.7319 45.2705 17.7319 46.0225V56.6385C17.7319 57.3905 17.1224 58 16.3704 58Z" fill="#C4C2B7"/>
    <path d="M22.6852 58C21.9332 58 21.3237 57.3905 21.3237 56.6385V46.0225C21.3237 45.2705 21.9332 44.6609 22.6852 44.6609C23.4372 44.6609 24.0467 45.2705 24.0467 46.0225V56.6385C24.0467 57.3905 23.4372 58 22.6852 58Z" fill="#C4C2B7"/>
    <path d="M29 58C28.248 58 27.6385 57.3905 27.6385 56.6385V46.0225C27.6385 45.2705 28.248 44.6609 29 44.6609C29.752 44.6609 30.3615 45.2705 30.3615 46.0225V56.6385C30.3615 57.3905 29.752 58 29 58Z" fill="#C4C2B7"/>
    <path d="M35.3146 58C34.5627 58 33.9531 57.3905 33.9531 56.6385V46.0225C33.9531 45.2705 34.5627 44.6609 35.3146 44.6609C36.0666 44.6609 36.6761 45.2705 36.6761 46.0225V56.6385C36.6761 57.3905 36.0666 58 35.3146 58Z" fill="#C4C2B7"/>
    <path d="M41.6294 58C40.8775 58 40.2679 57.3905 40.2679 56.6385V46.0225C40.2679 45.2705 40.8775 44.6609 41.6294 44.6609C42.3814 44.6609 42.9909 45.2705 42.9909 46.0225V56.6385C42.9909 57.3905 42.3814 58 41.6294 58Z" fill="#C4C2B7"/>
    <path d="M56.6385 17.7321H46.0223C45.2704 17.7321 44.6608 17.1226 44.6608 16.3706C44.6608 15.6186 45.2704 15.0091 46.0223 15.0091H56.6385C57.3905 15.0091 58 15.6186 58 16.3706C58 17.1226 57.3905 17.7321 56.6385 17.7321Z" fill="#C4C2B7"/>
    <path d="M56.6385 24.0467H46.0223C45.2704 24.0467 44.6608 23.4372 44.6608 22.6852C44.6608 21.9333 45.2704 21.3237 46.0223 21.3237H56.6385C57.3905 21.3237 58 21.9333 58 22.6852C58 23.4372 57.3905 24.0467 56.6385 24.0467Z" fill="#C4C2B7"/>
    <path d="M56.6385 30.3615H46.0223C45.2704 30.3615 44.6608 29.752 44.6608 29C44.6608 28.248 45.2704 27.6385 46.0223 27.6385H56.6385C57.3905 27.6385 58 28.248 58 29C58 29.752 57.3905 30.3615 56.6385 30.3615Z" fill="#C4C2B7"/>
    <path d="M56.6385 36.6763H46.0223C45.2704 36.6763 44.6608 36.0668 44.6608 35.3148C44.6608 34.5629 45.2704 33.9533 46.0223 33.9533H56.6385C57.3905 33.9533 58 34.5629 58 35.3148C58 36.0668 57.3905 36.6763 56.6385 36.6763Z" fill="#C4C2B7"/>
    <path d="M56.6385 42.9911H46.0223C45.2704 42.9911 44.6608 42.3815 44.6608 41.6296C44.6608 40.8776 45.2704 40.2681 46.0223 40.2681H56.6385C57.3905 40.2681 58 40.8776 58 41.6296C58 42.3815 57.3905 42.9911 56.6385 42.9911Z" fill="#C4C2B7"/>
    <path d="M11.9775 17.7321H1.3615C0.609545 17.7321 0 17.1226 0 16.3706C0 15.6186 0.609545 15.0091 1.3615 15.0091H11.9775C12.7295 15.0091 13.339 15.6186 13.339 16.3706C13.339 17.1226 12.7295 17.7321 11.9775 17.7321Z" fill="#C4C2B7"/>
    <path d="M11.9775 24.0467H1.3615C0.609545 24.0467 0 23.4372 0 22.6852C0 21.9333 0.609545 21.3237 1.3615 21.3237H11.9775C12.7295 21.3237 13.339 21.9333 13.339 22.6852C13.339 23.4372 12.7295 24.0467 11.9775 24.0467Z" fill="#C4C2B7"/>
    <path d="M11.9775 30.3615H1.3615C0.609545 30.3615 0 29.752 0 29C0 28.248 0.609545 27.6385 1.3615 27.6385H11.9775C12.7295 27.6385 13.339 28.248 13.339 29C13.339 29.752 12.7295 30.3615 11.9775 30.3615Z" fill="#C4C2B7"/>
    <path d="M11.9775 36.6763H1.3615C0.609545 36.6763 0 36.0668 0 35.3148C0 34.5629 0.609545 33.9533 1.3615 33.9533H11.9775C12.7295 33.9533 13.339 34.5629 13.339 35.3148C13.339 36.0668 12.7295 36.6763 11.9775 36.6763Z" fill="#C4C2B7"/>
    <path d="M11.9775 42.9911H1.3615C0.609545 42.9911 0 42.3815 0 41.6296C0 40.8776 0.609545 40.2681 1.3615 40.2681H11.9775C12.7295 40.2681 13.339 40.8776 13.339 41.6296C13.339 42.3815 12.7295 42.9911 11.9775 42.9911Z" fill="#C4C2B7"/>
    <path d="M36.3215 21.6785H21.6785V36.3215H36.3215V21.6785Z" fill="#CCCCCC"/>
</svg>
